<svg xmlns="http://www.w3.org/2000/svg" version="1.1" xmlns:xlink="http://www.w3.org/1999/xlink" xmlns:svgjs="http://svgjs.com/svgjs" width="1440" height="560" preserveAspectRatio="none" viewBox="0 0 1440 560"><g mask="url(&quot;#SvgjsMask1035&quot;)" fill="none"><rect width="1440" height="560" x="0" y="0" fill="#0e2a47"></rect><path d="M188.903,259.857C235.979,258.861,283.619,240.884,306.062,199.49C327.688,159.603,311.226,113.583,289.93,73.519C266.74,29.892,238.198,-17.575,188.903,-20.92C135.324,-24.556,87.162,11.104,60.961,57.98C35.396,103.719,34.78,160.377,62.83,204.636C89.153,246.17,139.741,260.897,188.903,259.857" fill="rgba(255, 255, 255, 0.23)" class="triangle-float1"></path><path d="M376.906,354.377C397.339,354.13,414.627,340.664,424.62,322.84C434.377,305.438,434.741,284.891,425.89,267.011C415.81,246.649,399.561,228.167,376.906,226.453C351.489,224.53,324.733,235.776,313.153,258.484C302.276,279.813,313.894,304.081,327.149,324.019C338.678,341.36,356.084,354.629,376.906,354.377" fill="rgba(255, 255, 255, 0.23)" class="triangle-float1"></path><path d="M1166.893,340.656C1193.997,340.474,1221.168,332.035,1236,309.348C1252.277,284.45,1257.617,251.387,1241.668,226.277C1226.52,202.429,1195.132,199.694,1166.893,200.551C1140.573,201.35,1113.852,208.458,1099.586,230.59C1084.145,254.545,1081.287,285.975,1096.155,310.289C1110.503,333.752,1139.392,340.841,1166.893,340.656" fill="rgba(255, 255, 255, 0.23)" class="triangle-float2"></path><path d="M320.2,555.534C369.548,554.619,417.719,537.49,445.049,496.391C475.667,450.348,488.61,390.915,461.84,342.533C434.375,292.895,376.93,270.983,320.2,270.753C263.014,270.521,205.165,291.862,176.556,341.377C147.933,390.916,155.191,453.662,187.062,501.177C215.681,543.845,268.832,556.487,320.2,555.534" fill="rgba(255, 255, 255, 0.23)" class="triangle-float3"></path><path d="M149.275,379.835C173.245,381.007,200.995,382.206,214.058,362.074C227.836,340.84,220.103,312.98,206.511,291.627C193.994,271.963,172.583,260.037,149.275,260.305C126.433,260.568,105.586,273.07,94.276,292.917C83.076,312.571,82.513,337.118,94.609,356.233C105.984,374.209,128.027,378.796,149.275,379.835" fill="rgba(255, 255, 255, 0.23)" class="triangle-float1"></path><path d="M1185.652,469.922C1242.979,470.588,1296.651,438.796,1323.825,388.314C1349.737,340.175,1342.075,281.221,1311.692,235.771C1284.455,195.026,1234.636,183.229,1185.652,181.619C1132.677,179.878,1073.351,182.59,1044.401,226.989C1013.49,274.396,1024.484,336.242,1052.931,385.167C1081.21,433.803,1129.396,469.268,1185.652,469.922" fill="rgba(255, 255, 255, 0.23)" class="triangle-float3"></path><path d="M286.222,464.103C335.175,467.095,386.975,446.916,409.26,403.227C430.217,362.14,407.369,315.377,381.594,277.128C359.464,244.289,325.822,220.534,286.222,220.646C246.808,220.757,211.772,243.697,191.776,277.662C171.461,312.168,168.643,353.908,186.738,389.628C206.801,429.234,241.907,461.395,286.222,464.103" fill="rgba(255, 255, 255, 0.23)" class="triangle-float1"></path><path d="M1468.227,631.286C1509.182,633.66,1553.173,618.196,1571.761,581.625C1589.261,547.193,1567.128,509.334,1546.951,476.399C1528.043,445.535,1504.415,413.361,1468.227,412.63C1431.131,411.881,1401.309,440.392,1383.795,473.103C1367.334,503.849,1367.164,539.951,1383.586,570.718C1401.095,603.521,1431.105,629.134,1468.227,631.286" fill="rgba(255, 255, 255, 0.23)" class="triangle-float2"></path><path d="M1337.25,295.349C1389.683,293.177,1418.538,240.785,1444.894,195.406C1471.428,149.72,1502.012,98.987,1478.884,51.486C1453.659,-0.321,1394.66,-30.606,1337.25,-25.67C1286.06,-21.269,1256.698,27.45,1232.329,72.682C1209.666,114.746,1192.599,161.791,1212.966,205.014C1236.364,254.67,1282.405,297.621,1337.25,295.349" fill="rgba(255, 255, 255, 0.23)" class="triangle-float3"></path></g><defs><mask id="SvgjsMask1035"><rect width="1440" height="560" fill="#ffffff"></rect></mask><style>
            @keyframes float1 {
                0%{transform: translate(0, 0)}
                50%{transform: translate(-10px, 0)}
                100%{transform: translate(0, 0)}
            }

            .triangle-float1 {
                animation: float1 5s infinite;
            }

            @keyframes float2 {
                0%{transform: translate(0, 0)}
                50%{transform: translate(-5px, -5px)}
                100%{transform: translate(0, 0)}
            }

            .triangle-float2 {
                animation: float2 4s infinite;
            }

            @keyframes float3 {
                0%{transform: translate(0, 0)}
                50%{transform: translate(0, -10px)}
                100%{transform: translate(0, 0)}
            }

            .triangle-float3 {
                animation: float3 6s infinite;
            }
        </style></defs></svg>