<svg xmlns="http://www.w3.org/2000/svg" version="1.1" xmlns:xlink="http://www.w3.org/1999/xlink" xmlns:svgjs="http://svgjs.com/svgjs" width="1440" height="560" preserveAspectRatio="none" viewBox="0 0 1440 560"><g mask="url(&quot;#SvgjsMask1027&quot;)" fill="none"><rect width="1440" height="560" x="0" y="0" fill="#0e2a47"></rect><path d="M69.489,549.749C91.74,550.264,111.205,537.329,123.568,518.822C137.763,497.573,148.673,471.35,137.071,448.582C124.659,424.225,96.754,410.717,69.489,412.696C44.947,414.478,27.674,435.125,17.004,457.298C7.837,476.348,9.14,498.032,19.577,516.417C30.163,535.065,48.052,549.253,69.489,549.749" fill="rgba(90, 187, 2, 0.46)" class="triangle-float3"></path><path d="M1238.134,598.881C1287.068,598.135,1331.064,569.949,1354.854,527.18C1377.989,485.588,1375.572,435.395,1352.1,393.993C1328.282,351.982,1286.356,318.685,1238.134,321.302C1193.06,323.748,1166.61,366.376,1143.752,405.3C1120.457,444.969,1094.925,489.483,1115.086,530.833C1137.101,575.987,1187.905,599.646,1238.134,598.881" fill="rgba(90, 187, 2, 0.46)" class="triangle-float3"></path><path d="M131.312,402.838C163.374,401.507,190.548,382.376,207.36,355.043C225.159,326.106,236.884,289.384,218.777,260.639C201.384,233.028,163.918,233.017,131.312,234.319C101.707,235.501,71.968,242.771,55.162,267.172C35.83,295.24,26.796,332.129,43.477,361.848C60.427,392.045,96.713,404.275,131.312,402.838" fill="rgba(90, 187, 2, 0.46)" class="triangle-float2"></path><path d="M849.413,572.103C893.589,572.663,939.065,561.946,963.927,525.425C992.007,484.177,1001.691,429.001,975.919,386.272C950.771,344.577,897.988,332.195,849.413,335.563C806.82,338.516,771.62,365.098,750.034,401.934C728.164,439.256,718.006,485.23,739.821,522.584C761.488,559.685,806.451,571.558,849.413,572.103" fill="rgba(90, 187, 2, 0.46)" class="triangle-float2"></path><path d="M476.494,126.265C514.224,129.401,554.532,115.353,572.887,82.24C590.844,49.844,577.427,11.055,557.751,-20.327C539.526,-49.394,510.746,-69.538,476.494,-71.503C438.237,-73.697,394.886,-64.728,377.309,-30.677C360.505,1.877,384.793,37.262,404.365,68.231C422.035,96.19,443.533,123.525,476.494,126.265" fill="rgba(90, 187, 2, 0.46)" class="triangle-float1"></path><path d="M1431.043,640.129C1471.083,642.746,1508.375,616.855,1526.593,581.104C1543.398,548.127,1534.094,509.084,1513.49,478.337C1495.28,451.162,1463.735,437.365,1431.043,438.513C1400.373,439.59,1373.432,457.24,1358.046,483.794C1342.616,510.425,1341.904,541.997,1354.925,569.885C1370.581,603.415,1394.117,637.716,1431.043,640.129" fill="rgba(90, 187, 2, 0.46)" class="triangle-float1"></path><path d="M935.499,237.567C960.257,235.718,981.458,222.735,995.257,202.096C1011.181,178.279,1024.011,149.471,1011.691,123.605C997.94,94.734,967.473,76.134,935.499,76.631C904.274,77.116,878.792,98.795,863.303,125.912C847.958,152.778,841.183,186.368,857.982,212.349C873.795,236.805,906.457,239.736,935.499,237.567" fill="rgba(90, 187, 2, 0.46)" class="triangle-float1"></path><path d="M1296.14,576.848C1324.476,578.022,1347.349,557.1,1362.319,533.013C1378.382,507.168,1391.64,474.79,1375.664,448.891C1360.128,423.705,1325.68,423.977,1296.14,425.729C1270.44,427.253,1244.029,434.992,1231.432,457.445C1219.049,479.517,1226.762,505.647,1238.82,527.898C1251.651,551.574,1269.234,575.734,1296.14,576.848" fill="rgba(90, 187, 2, 0.46)" class="triangle-float1"></path><path d="M931.36,552.096C989.729,551.519,1050.979,537.217,1081.387,487.391C1112.861,435.819,1104.294,370.693,1073.954,318.446C1043.758,266.448,991.421,226.164,931.36,229.039C874.947,231.739,839.44,282.493,810.597,331.051C780.849,381.133,748.18,439.288,776.108,490.408C804.723,542.785,871.679,552.686,931.36,552.096" fill="rgba(90, 187, 2, 0.46)" class="triangle-float3"></path></g><defs><mask id="SvgjsMask1027"><rect width="1440" height="560" fill="#ffffff"></rect></mask><style>
            @keyframes float1 {
                0%{transform: translate(0, 0)}
                50%{transform: translate(-10px, 0)}
                100%{transform: translate(0, 0)}
            }

            .triangle-float1 {
                animation: float1 5s infinite;
            }

            @keyframes float2 {
                0%{transform: translate(0, 0)}
                50%{transform: translate(-5px, -5px)}
                100%{transform: translate(0, 0)}
            }

            .triangle-float2 {
                animation: float2 4s infinite;
            }

            @keyframes float3 {
                0%{transform: translate(0, 0)}
                50%{transform: translate(0, -10px)}
                100%{transform: translate(0, 0)}
            }

            .triangle-float3 {
                animation: float3 6s infinite;
            }
        </style></defs></svg>