<?xml version="1.0" standalone="no"?><svg xmlns="http://www.w3.org/2000/svg" viewBox="0 0 1440 320"><path fill="#5abb00    " fill-opacity="1" d="M0,192L18.5,197.3C36.9,203,74,213,111,186.7C147.7,160,185,96,222,112C258.5,128,295,224,332,250.7C369.2,277,406,235,443,208C480,181,517,171,554,170.7C590.8,171,628,181,665,176C701.5,171,738,149,775,133.3C812.3,117,849,107,886,133.3C923.1,160,960,224,997,245.3C1033.8,267,1071,245,1108,245.3C1144.6,245,1182,267,1218,272C1255.4,277,1292,267,1329,261.3C1366.2,256,1403,256,1422,256L1440,256L1440,320L1421.5,320C1403.1,320,1366,320,1329,320C1292.3,320,1255,320,1218,320C1181.5,320,1145,320,1108,320C1070.8,320,1034,320,997,320C960,320,923,320,886,320C849.2,320,812,320,775,320C738.5,320,702,320,665,320C627.7,320,591,320,554,320C516.9,320,480,320,443,320C406.2,320,369,320,332,320C295.4,320,258,320,222,320C184.6,320,148,320,111,320C73.8,320,37,320,18,320L0,320Z"></path></svg>